<?xml version="1.0" standalone="no"?>
<!DOCTYPE svg PUBLIC "-//W3C//DTD SVG 20010904//EN"
 "http://www.w3.org/TR/2001/REC-SVG-20010904/DTD/svg10.dtd">
<svg version="1.0" xmlns="http://www.w3.org/2000/svg"
 width="575.000000pt" height="575.000000pt" viewBox="0 0 575.000000 575.000000"
 preserveAspectRatio="xMidYMid meet">
<metadata>
Created by potrace 1.14, written by Peter Selinger 2001-2017
</metadata>
<g transform="translate(0.000000,575.000000) scale(0.100000,-0.100000)"
fill="#000000" stroke="none">
<path d="M964 3932 c3 -5 58 -54 122 -108 l116 -99 986 -5 987 -5 57 -28 c34
-17 77 -50 107 -82 186 -205 122 -608 -114 -717 -48 -22 -63 -23 -372 -28
-306 -5 -323 -6 -350 -26 -15 -11 -34 -33 -42 -49 -23 -46 -1 -89 100 -200
208 -226 366 -403 577 -647 123 -142 227 -260 233 -263 5 -4 47 24 93 60 l84
67 -246 286 c-136 157 -301 345 -367 416 l-119 131 199 5 c192 6 203 7 273 35
248 100 392 349 379 655 -13 291 -157 497 -407 583 l-65 22 -1118 3 c-675 2
-1116 -1 -1113 -6z"/>
<path d="M4405 3451 c-48 -12 -50 -14 -276 -231 -118 -113 -263 -252 -324
-310 -121 -117 -311 -299 -452 -434 l-92 -89 26 -31 c14 -17 48 -55 74 -85
l48 -54 38 33 c35 30 233 218 518 490 368 352 478 455 486 458 6 2 31 -15 57
-39 56 -51 728 -687 857 -811 105 -101 136 -128 144 -128 3 1 44 36 90 79 l83
78 -78 74 c-43 41 -119 113 -169 160 -98 93 -210 199 -350 330 -103 97 -232
219 -355 335 -109 104 -160 149 -185 162 -29 15 -105 22 -140 13z"/>
<path d="M276 3112 c-3 -5 1 -9 9 -9 8 0 12 4 9 9 -3 4 -7 8 -9 8 -2 0 -6 -4
-9 -8z"/>
</g>
</svg>
